<svg xmlns="http://www.w3.org/2000/svg" xmlns:xlink="http://www.w3.org/1999/xlink" width="56" height="56" viewBox="0 0 56 56">
  <defs>
    <clipPath id="clip-path">
      <rect id="Rectangle_5275" data-name="Rectangle 5275" width="56" height="56" transform="translate(0.081 -0.371)" fill="none"/>
    </clipPath>
  </defs>
  <g id="Group_17711" data-name="Group 17711" transform="translate(-0.081 0.371)">
    <g id="Group_17701" data-name="Group 17701" clip-path="url(#clip-path)">
      <path id="Path_19896" data-name="Path 19896" d="M28.467,0A27.5,27.5,0,0,0,.821,27.351c0,7.5,4.012,14.2,4.012,14.2L0,56.114l15.148-4.789A28.248,28.248,0,0,0,28.467,54.7,27.5,27.5,0,0,0,56.114,27.351,27.5,27.5,0,0,0,28.467,0m0,50.326a25.565,25.565,0,0,1-12.8-3.8L6.937,49.344,9.77,40.98s-4.526-6.2-4.526-13.629A23.224,23.224,0,1,1,28.467,50.326" transform="translate(0.009 0.009)" fill="#fff"/>
      <path id="Path_19897" data-name="Path 19897" d="M142.876,133.52s-4.53-2.17-5.461-2.592a1.093,1.093,0,0,0-1.4.265s-1.373,1.718-1.815,2.28-.694,1.062-1.847.687a17.856,17.856,0,0,1-5.35-3.279,21.915,21.915,0,0,1-3.741-4.56.836.836,0,0,1,.063-1.093s1.2-1.363,1.768-2.092a1.783,1.783,0,0,0,.079-1.874c-.137-.329-1.973-4.6-2.241-5.2a1.237,1.237,0,0,0-.852-.7H119.9a3.259,3.259,0,0,0-1.136.468c-2.238,1.418-2.617,4.726-2.683,5.44a8.922,8.922,0,0,0,1.05,4.782c1.181,2.553,4.068,6.015,7.632,9.3s9.03,4.7,10.684,5.161a8.323,8.323,0,0,0,6.786-2.107,4.861,4.861,0,0,0,1.231-4.184.732.732,0,0,0-.584-.7" transform="translate(-100.811 -100.376)" fill="#fff"/>
    </g>
  </g>
</svg>
